<svg width="177" height="56" viewBox="0 0 177 56" fill="none" xmlns="http://www.w3.org/2000/svg"><g clip-path="url(#clip0)"><path d="M0.0891113 16.4746H19.0276V39.7817H15.796V19.1689H3.32081V39.7817H0.0891113V16.4746Z" fill="#1A1A1A"/><path d="M34.6176 16.1479C38.1919 16.1479 40.8782 17.0902 42.6462 18.5853L41.0496 20.7658C39.7492 19.8235 37.7012 18.8501 34.6096 18.8501C28.9328 18.8501 26.0593 22.9306 26.0593 28.1325C26.0593 33.3343 28.9328 37.415 34.6096 37.415C37.7012 37.415 39.7492 36.4413 41.0496 35.4993L42.6462 37.6797C40.8706 39.1747 38.1919 40.117 34.6176 40.117C26.9471 40.117 22.6018 34.9773 22.6018 28.1403C22.6018 21.3031 26.9393 16.1479 34.6176 16.1479Z" fill="#1A1A1A"/><path d="M60.9303 16.475H65.1043L54.6226 26.5673L65.268 39.7823H61.3197L52.411 28.701L49.125 31.8704V39.79H45.8933V16.475H49.125V27.8366L60.9303 16.475Z" fill="#1A1A1A"/><path d="M103.955 28.1326C103.955 21.2877 108.293 16.1559 115.971 16.1559C123.641 16.1559 127.986 21.2955 127.986 28.1326C127.986 34.9697 123.649 40.1093 115.971 40.1093C108.3 40.1093 103.955 34.9697 103.955 28.1326ZM124.521 28.1326C124.521 22.9308 121.609 18.8503 115.971 18.8503C110.294 18.8503 107.42 22.9308 107.42 28.1326C107.42 33.3343 110.294 37.415 115.971 37.415C121.609 37.4073 124.521 33.3343 124.521 28.1326Z" fill="#1A1A1A"/><path d="M143.771 35.1487L151.885 16.475H155.981V39.7823H152.75V22.4089L145.173 39.7823H142.377L134.8 22.4089V39.7823H131.569V16.475H135.665L143.771 35.1487Z" fill="#1A1A1A"/><path d="M101.035 39.7667V37.0877H98.1383V16.475H83.07C83.07 19.3174 83.1323 30.4998 79.1063 37.0877H76.7V39.7667H101.035ZM86.1303 19.1694H94.9066V37.08H82.6806C85.671 31.8159 86.1303 23.3356 86.1303 19.1694Z" fill="#1A1A1A"/><path d="M176.558 0.0861225H162.86V13.7847H176.558V0.0861225Z" fill="url(#paint0_linear)"/><path d="M174.337 8.69809C173.887 8.33086 173.382 8.13803 172.831 8.10133C172.519 8.08296 172.473 8.00033 172.491 7.64226C172.519 7.21073 172.611 6.79756 172.693 6.37523C172.776 5.92536 172.895 5.48463 172.987 5.04393C173.107 4.43796 173.309 3.8412 173.373 3.21686C173.382 3.15259 173.4 3.08832 173.419 3.02405C173.639 2.22527 173.685 1.41732 173.51 0.60018C173.318 -0.290408 172.675 -0.832106 171.904 -0.804562C171.592 -0.795379 171.509 -0.703569 171.491 -0.354676C171.481 -0.143507 171.426 0.0217569 171.289 0.168658C171.105 0.370647 170.921 0.563454 170.765 0.80217C170.178 1.67439 169.572 2.52826 168.966 3.38213C168.424 4.15336 167.855 4.90623 167.396 5.76009C167.139 6.24669 166.845 6.72413 166.652 7.24746C166.514 7.61469 166.312 7.94523 166.211 8.34003C166.165 8.53283 166.019 8.67973 165.844 8.73483C165.495 8.82663 165.165 9.01026 164.788 9.00109C164.485 8.99189 164.228 9.15716 163.98 9.31326C163.631 9.52443 163.567 10.2957 163.98 10.6721C164.375 11.0302 164.816 11.2505 165.266 11.4709C165.743 11.7096 166.12 11.581 166.322 11.0485C166.413 10.8098 166.533 10.6078 166.624 10.3691C166.707 10.1671 166.854 10.0386 167.047 9.97429C167.644 9.79069 168.259 9.73559 168.856 9.61623C169.691 9.46016 170.536 9.53359 171.38 9.48769C171.436 9.48769 171.5 9.48769 171.555 9.48769C171.849 9.49689 172.142 9.44179 172.436 9.54279C172.748 9.65296 172.831 9.87332 172.684 10.1947C172.491 10.6078 172.39 11.0485 172.262 11.4892C172.207 11.682 172.087 11.8473 172.06 12.0677C172.005 12.5175 171.849 12.9399 171.729 13.3714C171.647 13.6744 171.5 13.959 171.472 14.2804C171.454 14.4732 171.509 14.6017 171.702 14.6384C172.188 14.7302 172.592 14.5007 172.996 14.2436C173.033 14.2161 173.07 14.161 173.088 14.1151C173.171 13.8856 173.235 13.656 173.308 13.4265C173.465 12.995 173.501 12.5084 173.749 12.1227C173.988 11.7371 174.19 11.3423 174.328 10.8924C174.438 10.5344 174.493 10.1671 174.621 9.81822C174.814 9.36833 174.704 9.01026 174.337 8.69809ZM171.316 5.69583C171.068 6.24669 170.967 6.86183 171.041 7.50453C171.059 7.65143 171.133 7.74326 171.197 7.84423C171.371 8.13803 171.307 8.32166 170.995 8.31249C170.233 8.29413 169.489 8.58793 168.727 8.56956C168.553 8.56039 168.378 8.67056 168.204 8.70729C168.075 8.73483 167.928 8.76236 167.836 8.61546C167.745 8.46856 167.836 8.34003 167.892 8.20233C168.204 7.43109 168.589 6.69656 169.03 6.01716C169.526 5.23676 170.067 4.49306 170.628 3.77693C170.839 3.51066 171.032 3.23522 171.243 2.96896C171.353 2.83124 171.463 2.66598 171.656 2.75779C171.858 2.8496 171.784 3.06996 171.812 3.23522C171.775 4.09826 171.674 4.91539 171.316 5.69583Z" fill="#fff"/><path d="M13.4751 54.6617V49.6267H16.1593C17.3823 49.6267 17.8032 50.3573 17.8032 50.9927C17.8032 51.342 17.6206 51.8423 17.1997 52.041C17.6682 52.2553 17.9303 52.708 17.9303 53.2083C17.9303 53.9073 17.5253 54.6537 16.1673 54.6537H13.4751V54.6617ZM14.1819 51.771H16.1673C16.9217 51.771 17.1044 51.358 17.1044 50.9927C17.1044 50.6273 16.9217 50.2143 16.1673 50.2143H14.1819V51.771ZM16.1593 52.3587H14.174V54.074H16.1593C16.9456 54.074 17.2235 53.7247 17.2235 53.2163C17.2235 52.708 16.9456 52.3587 16.1593 52.3587Z" fill="#969696"/><path d="M23.0052 53.55L23.442 53.9867C22.9575 54.487 22.2745 54.765 21.3533 54.765C19.8285 54.765 18.9312 53.6533 18.9312 52.1443C18.9312 50.6353 19.8285 49.5237 21.3533 49.5237C22.7749 49.5237 23.7755 50.4767 23.7755 52.438H19.6777C19.7015 53.423 20.3289 54.1693 21.3533 54.1693C22.1395 54.1693 22.6557 53.8517 23.0052 53.55ZM23.0369 51.8503C22.9575 50.8657 22.3937 50.1193 21.3613 50.1193C20.3289 50.1193 19.765 50.8737 19.6856 51.8503H23.0369Z" fill="#969696"/><path d="M29.3421 49.6267V54.6617H28.6353V50.2143H26.0702V52.557C26.0702 54.876 24.7281 54.6617 24.5295 54.6617V54.074C24.7519 54.074 25.3713 54.082 25.3713 52.565V49.6347H29.3421V49.6267Z" fill="#969696"/><path d="M35.8228 52.1443C35.8228 53.661 34.8141 54.765 33.1862 54.765C31.5582 54.765 30.5496 53.661 30.5496 52.1443C30.5496 50.6273 31.5582 49.5237 33.1862 49.5237C34.8141 49.5237 35.8228 50.6273 35.8228 52.1443ZM31.2961 52.1443C31.2961 53.288 31.9394 54.1693 33.1862 54.1693C34.4411 54.1693 35.0761 53.28 35.0761 52.1443C35.0761 51.0087 34.4331 50.1193 33.1862 50.1193C31.9314 50.1193 31.2961 51.0007 31.2961 52.1443Z" fill="#969696"/><path d="M41.5323 49.6267V54.6617H40.8256V50.2143H37.7363V54.6617H37.0293V49.6267H41.5323Z" fill="#969696"/><path d="M45.4796 53.7167L47.2269 49.6187H48.0209V54.6537H47.3222V51.0243L45.8212 54.6537H45.1382L43.6372 51.0243V54.6537H42.9382V49.6187H43.7326L45.4796 53.7167Z" fill="#969696"/><path d="M53.302 53.55L53.7387 53.9867C53.2544 54.487 52.5714 54.765 51.65 54.765C50.1254 54.765 49.228 53.6533 49.228 52.1443C49.228 50.6353 50.1254 49.5237 51.65 49.5237C53.0717 49.5237 54.0724 50.4767 54.0724 52.438H49.9744C49.9984 53.423 50.6257 54.1693 51.65 54.1693C52.4364 54.1693 52.9447 53.8517 53.302 53.55ZM53.3257 51.8503C53.2464 50.8657 52.6824 50.1193 51.65 50.1193C50.6177 50.1193 50.0537 50.8737 49.9744 51.8503H53.3257Z" fill="#969696"/><path d="M59.0913 49.6267H59.798V54.6617H59.0913V52.3427H55.986V54.6617H55.2793V49.6267H55.986V51.747H59.0913V49.6267Z" fill="#969696"/><path d="M60.9021 49.6267H65.3334V50.2143H63.4751V54.6617H62.7681V50.2143H60.9098V49.6267H60.9021Z" fill="#969696"/><path d="M5.56268 49.2603V54.0113H6.31705V55.8463H5.56268V54.6427H0.843955V55.8463H0.0895996V54.0113H0.742302C1.20597 53.355 1.52341 52.369 1.69461 51.0527C1.77308 50.4713 1.81588 49.874 1.82301 49.2603H5.56268ZM1.58761 54.0113H4.80832V49.8917H2.51851C2.51138 50.1307 2.49177 50.4017 2.45966 50.705C2.43113 51.0047 2.38476 51.3523 2.32056 51.7483C2.25636 52.144 2.16006 52.5453 2.03166 52.952C1.90683 53.3587 1.75881 53.7117 1.58761 54.0113Z" fill="#969696"/><path d="M9.70903 54.1183C10.3617 54.1183 10.9502 53.8973 11.4745 53.455L11.9454 53.9203C11.4103 54.4733 10.6649 54.7497 9.70903 54.7497C9.17759 54.7497 8.71393 54.6283 8.31803 54.3857C7.92569 54.1433 7.62786 53.8117 7.42456 53.3907C7.22126 52.97 7.11963 52.49 7.11963 51.9517C7.11963 51.413 7.22126 50.9333 7.42456 50.5123C7.62786 50.0917 7.92569 49.7597 8.31803 49.5173C8.71393 49.2747 9.17759 49.1533 9.70903 49.1533C10.4973 49.1533 11.125 49.4193 11.5922 49.9507C12.0631 50.4787 12.2985 51.2507 12.2985 52.2673H7.91676C7.93103 52.8057 8.09866 53.2497 8.41966 53.5993C8.74423 53.9453 9.17403 54.1183 9.70903 54.1183ZM7.91676 51.636H11.5013C11.4549 51.0867 11.2766 50.6407 10.9663 50.2983C10.6596 49.956 10.2405 49.7847 9.70903 49.7847C9.17759 49.7847 8.75673 49.956 8.44643 50.2983C8.13969 50.6407 7.96313 51.0867 7.91676 51.636Z" fill="#969696"/></g><defs><linearGradient id="paint0_linear" x1="162.859" y1="6.932" x2="176.559" y2="6.932" gradientUnits="userSpaceOnUse"><stop stop-color="#EC3A39"/><stop offset="1" stop-color="#EC3A39"/></linearGradient><clipPath id="clip0"><path fill="#fff" d="M0 0H176.667V56H0z"/></clipPath></defs></svg>